<?xml version="1.0" standalone="no"?>
<!DOCTYPE svg PUBLIC "-//W3C//DTD SVG 20010904//EN"
 "http://www.w3.org/TR/2001/REC-SVG-20010904/DTD/svg10.dtd">
<svg version="1.0" xmlns="http://www.w3.org/2000/svg"
 width="700.000000pt" height="700.000000pt" viewBox="0 0 700.000000 700.000000"
 preserveAspectRatio="xMidYMid meet">
<metadata>
Created by potrace 1.14, written by Peter Selinger 2001-2017
</metadata>
<g transform="translate(0.000000,700.000000) scale(0.100000,-0.100000)"
fill="#000000" stroke="none">
<path d="M1650 6939 c-216 -25 -406 -81 -605 -180 -349 -173 -628 -450 -799
-794 -106 -211 -164 -414 -186 -640 -14 -153 -14 -3522 1 -3671 33 -346 161
-667 373 -939 85 -108 261 -275 376 -357 179 -128 443 -242 662 -288 193 -40
257 -41 2123 -38 l1800 3 114 23 c578 115 1049 476 1295 992 90 190 142 374
165 582 15 135 15 3581 0 3716 -45 416 -229 796 -526 1089 -287 282 -668 461
-1072 502 -126 13 -3608 13 -3721 0z m-79 -952 c20 -13 240 -294 547 -697 282
-371 518 -683 525 -693 9 -15 11 128 9 697 l-3 716 185 0 186 0 0 -1060 0
-1060 -125 0 c-144 0 -172 8 -226 66 -20 22 -258 332 -529 689 -271 358 -498
655 -504 662 -8 9 -10 -177 -8 -702 l3 -715 -186 0 -185 0 0 1060 0 1060 139
0 c127 0 141 -2 172 -23z m3624 -10 c369 -99 618 -356 712 -733 24 -97 27
-128 27 -284 1 -133 -3 -195 -17 -260 -82 -377 -308 -640 -652 -755 -141 -48
-233 -55 -697 -55 l-428 0 0 1061 0 1060 478 -3 477 -4 100 -27z m-2539 -3822
c211 -577 384 -1053 384 -1057 0 -5 -79 -8 -175 -8 -198 0 -232 8 -264 61 -16
26 -101 276 -146 427 l-6 22 -391 -2 -391 -3 -68 -214 c-70 -222 -88 -256
-148 -281 -17 -6 -91 -9 -203 -8 l-176 3 142 390 c78 215 252 690 386 1058
l243 667 215 -2 215 -3 383 -1050z m2720 -4 c211 -580 384 -1056 384 -1058 0
-2 -79 -3 -175 -3 -190 0 -226 7 -261 52 -11 14 -51 123 -89 242 l-70 216
-389 -2 -390 -3 -70 -217 c-39 -119 -80 -226 -91 -239 -39 -42 -73 -49 -261
-49 -137 0 -175 3 -171 13 2 6 167 460 367 1007 199 547 371 1019 382 1048
l20 52 215 -2 215 -3 384 -1054z"/>
<path d="M4560 4956 l0 -726 228 0 c246 0 294 7 400 57 83 39 189 148 235 243
66 135 80 209 81 420 0 160 -3 196 -22 265 -64 232 -202 384 -403 442 -39 11
-119 17 -286 20 l-233 5 0 -726z"/>
<path d="M2045 2778 c-4 -18 -68 -220 -141 -448 -74 -228 -134 -421 -134 -427
0 -10 65 -13 290 -13 160 0 290 2 290 4 0 2 -50 158 -111 347 -62 189 -127
393 -146 454 -19 60 -36 111 -38 113 -1 2 -6 -12 -10 -30z"/>
<path d="M4765 2785 c-4 -16 -69 -222 -145 -457 -75 -235 -135 -430 -132 -433
3 -3 136 -5 295 -5 227 0 288 3 284 13 -2 6 -68 210 -146 452 -78 242 -143
445 -145 450 -2 6 -7 -3 -11 -20z"/>
</g>
</svg>
