<svg version="1" xmlns="http://www.w3.org/2000/svg" width="933.333" height="933.333" viewBox="0 0 700.000000 700.000000"><path d="M0 350v350h700V0H0v350zm686 0v336H14V14h672v336z"/><path d="M549.8 106.1l-.3 54.1-3.9-5.6c-9.3-13.5-25.6-23.9-42.5-27.2-12.3-2.4-30.8-1.5-41.6 2-27.8 8.9-47.8 34.2-55.7 70.1-2.9 13.2-3.6 40.5-1.4 55.3 4.1 27.6 13.9 48.1 30.4 63.3 12.4 11.4 24.3 16.9 41.3 19 17 2 37.1-1.8 49.9-9.6 6.2-3.8 15.3-12.6 20.5-19.9l3.5-5V332h33V52h-33l-.2 54.1zm-38.3 50c10.1 3.8 16 8.1 22.2 16.4 11.2 14.8 15.3 28.7 16 54.2.6 19.9-.5 29.7-4.8 42.8-3.8 11.2-7.6 18-14.5 25.4C521 305.1 509 310 493.5 310c-16.3-.1-25.3-3.6-36.1-14.4-8.3-8.3-14-18.9-17.5-32.6-3-11.9-3.8-41.5-1.5-54.7 5-29.1 20-48.3 41.9-53.9 7.8-2 23.7-1.2 31.2 1.7zM195.5 127.6c-3.8.8-11.2 3.5-16.3 6-7.4 3.6-10.8 6-17 12.2-4.3 4.2-9.2 9.5-10.9 11.7l-3.2 4v-15.3L148 131h-33v201h32.9l.3-64.8c.4-70.6.3-68.8 6.4-82.2 5.1-11.1 16.1-21.9 26.7-26.4 5.6-2.3 17.8-4.6 24.4-4.6 7 0 17.9 2.2 22.4 4.6 6.2 3.2 13.5 11.1 16.8 18.3 5.9 12.9 6.1 15.4 6.1 88.7V332h33.1l-.4-71.3c-.4-76.9-.4-76.3-6.1-92.7-5.6-16.1-15.8-28.1-29.7-34.9-4.7-2.2-11.8-4.7-16.1-5.6-9.6-1.9-27-1.8-36.3.1zM184.2 425.1c-11.1 1.2-28.6 5.1-41.3 9.1l-10.4 3.4-.3 15.2-.3 15.1 7.3-3.3c17.6-8 32.5-11.5 52.8-12.3 16.3-.7 26.8 1.1 37.6 6.2 9.2 4.4 18.2 13.8 21.3 22 2.3 6 4.6 19.8 3.7 22-.4 1-8.1 1.4-36.3 1.8-31.1.4-37 .7-44.8 2.4-28.6 6.5-45.8 19.8-52.9 41.4-3.7 11-4.6 28.5-2.2 39.9 3.9 18.3 15.6 33.4 31.8 40.9 12.5 5.8 17 6.6 35.8 6.5 19-.1 27.3-1.8 39.8-8.1 8.3-4.1 19.1-13.6 24.3-21.2 1.9-2.8 3.7-5.1 4.2-5.1.4 0 .7 6.7.7 15v15h32v-64.8c0-37.4-.5-67.6-1-71.7-1.7-11.7-4.9-22.6-9.3-31.5-5.4-11-16.8-22.9-27.2-28.2-17.1-8.9-40.2-12.3-65.3-9.7zm70 115.4c-.6 18.9-4.6 32.3-13.7 45-16 22.4-48.6 30.2-72.8 17.3-7.1-3.8-12.6-10.3-15.7-18.5-2.9-7.8-2.5-24.3.7-31.4 4.7-10.5 14.2-17 29.5-20.4 11.4-2.5 23.5-3.2 49.3-3.1l23 .1-.3 11zM473.6 425.1c-11.8 1.2-27.5 4.6-40.5 8.8l-11.6 3.7-.3 15.1-.3 15.2 7.3-3.3c19.4-8.9 33.8-12 56.3-12.1 15.1 0 17.8.3 24.5 2.3 4.1 1.3 9.7 3.6 12.3 5 7.1 3.8 16 13.8 18.7 20.8 2.3 6.4 4.6 21.3 3.3 22.5-.4.4-16.8.9-36.3 1.2-30.8.4-36.7.7-44.5 2.4-29.5 6.6-46.4 20.2-53.5 42.8-3 9.6-3.8 28.1-1.6 38.5 3.7 17.4 14.6 32.1 29.5 39.9 10.3 5.3 17.4 7.1 31.7 7.8 21.2 1 38.6-2.9 51.8-11.7 7.4-5 16.9-14.4 20.3-20 .9-1.6 2.1-3 2.5-3 .4 0 .8 6.7.8 15v15h32.1l-.4-68.8c-.3-61.4-.5-69.5-2.1-76.2-2.5-10.4-4.2-15.3-8.4-24-4.9-10-16.7-22.1-26.7-27.2-17-8.8-40.3-12.3-64.9-9.7zM543.2 540c-1 31-13.5 53.4-35.4 63.5-18 8.2-41.9 6.8-55.3-3.3-5.4-4-10.9-12.2-12.6-18.7-1.8-6.4-.7-23.1 1.8-28.6 4.7-10.5 14.2-17 29.5-20.4 11.4-2.5 23.5-3.2 49.3-3.1l23 .1-.3 10.5z"/></svg>